<?xml version="1.0" standalone="no"?><!DOCTYPE svg PUBLIC "-//W3C//DTD SVG 1.1//EN" "http://www.w3.org/Graphics/SVG/1.1/DTD/svg11.dtd"><svg t="1715070473781" class="icon" viewBox="0 0 1024 1024" version="1.1" xmlns="http://www.w3.org/2000/svg" p-id="9168" xmlns:xlink="http://www.w3.org/1999/xlink" width="200" height="200"><path d="M733.866667 450.133333l-2.133334-4.266666h-78.933333L490.666667 896h89.6l42.666666-119.466667h140.8l42.666667 119.466667H896l-162.133333-445.866667z m-4.266667 234.666667h-74.666667l36.266667-102.4 38.4 102.4zM497.066667 695.466667l32-85.333334-4.266667-2.133333c-27.733333-19.2-55.466667-40.533333-78.933333-64 57.6-72.533333 100.266667-153.6 128-245.333333h72.533333V206.933333H426.666667V128h-83.2v78.933333H128V298.666667h356.266667c-23.466667 66.133333-55.466667 125.866667-98.133334 179.2-25.6-34.133333-49.066667-70.4-68.266666-108.8l-2.133334-2.133334h-91.733333l4.266667 8.533334c25.6 61.866667 59.733333 117.333333 100.266666 168.533333-55.466667 53.333333-117.333333 91.733333-185.6 115.2l-6.4 2.133333 21.333334 87.466667 6.4-2.133333c83.2-27.733333 157.866667-74.666667 221.866666-138.666667 32 32 68.266667 59.733333 106.666667 83.2l4.266667 4.266667z" fill="#ffffff" p-id="9169"></path></svg>