<?xml version="1.0" standalone="no"?><!DOCTYPE svg PUBLIC "-//W3C//DTD SVG 1.1//EN" "http://www.w3.org/Graphics/SVG/1.1/DTD/svg11.dtd"><svg t="1728825543623" class="icon" viewBox="0 0 1059 1024" version="1.1" xmlns="http://www.w3.org/2000/svg" p-id="1466" xmlns:xlink="http://www.w3.org/1999/xlink" width="206.8359375" height="200"><path d="M874.864646 802.4125l-48.6125 48.6125L161.564646 186.3375l48.6125-48.6125 664.6875 664.6875z" fill="#ffffff" p-id="1467"></path><path d="M516.464646 0C233.714646 0 4.464646 229.21875 4.464646 512c0 282.78125 229.25 512 512 512 282.81375 0 512-229.21875 512-512C1028.464646 229.21875 799.278396 0 516.464646 0z m0 944C277.900896 944 84.464646 750.595 84.464646 512 84.464646 273.40625 277.900896 80 516.464646 80c238.62625 0 432 193.40625 432 432 0 238.595-193.37375 432-432 432z" fill="#ffffff" p-id="1468"></path><path d="M382.787146 659.7275c-38.79875-11.24-19.23-18.18625-44.895-18.18625-62.5975 0-101.7725 39.78375-101.7725 88.835 0 49.08625 30.0925 88.87375 92.69875 88.87375 62.63875 0 92.7675-39.7875 92.7675-88.87375V463.7925l271.595-133.25375v284.73125c-38.79875-11.23875-15.70125-18.14625-41.3625-18.14625-62.56625 0-100.02875 39.78625-100.02875 88.835 0 49.0875 27.47375 88.87375 90.07875 88.87375 62.6375 0 90.1125-39.78625 90.1125-88.87375V197.25L382.785896 374.96125v284.76625h0.00125z" fill="#ffffff" p-id="1469"></path></svg>