<?xml version="1.0" standalone="no"?><!DOCTYPE svg PUBLIC "-//W3C//DTD SVG 1.1//EN" "http://www.w3.org/Graphics/SVG/1.1/DTD/svg11.dtd"><svg t="1725266739314" class="icon" viewBox="0 0 1024 1024" version="1.1" xmlns="http://www.w3.org/2000/svg" p-id="9544" xmlns:xlink="http://www.w3.org/1999/xlink" width="200" height="200"><path d="M875.8671875 738.7578125L527.8203125 933.875v-152.9296875l216.2109375-116.015625 131.8359375 73.828125z m26.3671875-21.09375V316.8828125L775.671875 390.7109375v258.3984375l126.5625 68.5546875z m-754.1015625 21.09375L496.1796875 933.875v-152.9296875l-216.2109375-116.015625-131.8359375 73.828125z m-26.3671875-21.09375V316.8828125L248.328125 390.7109375v258.3984375L121.765625 717.6640625z m15.8203125-427.1484375L496.1796875 90.125v147.65625L264.1484375 359.0703125 137.5859375 290.515625z m748.828125 0L527.8203125 90.125v147.65625l232.03125 126.5625 126.5625-73.828125z m-390.234375 458.7890625l-216.2109375-116.015625V406.53125l216.2109375 121.2890625v221.484375z m31.640625 0l216.2109375-116.015625V406.53125L527.8203125 527.8203125v221.484375z m-232.03125-369.140625L512 264.1484375l216.2109375 116.015625L512 501.453125 295.7890625 380.1640625z m0 0" p-id="9545"></path></svg>